<?xml version="1.0" encoding="UTF-8"?>
<svg id="Layer_2" xmlns="http://www.w3.org/2000/svg" xmlns:xlink="http://www.w3.org/1999/xlink" viewBox="0 0 468.13 179.91">
  <defs>
    <style>
      .cls-1 {
        fill: none;
      }

      .cls-2 {
        fill: #ff5c00;
      }

      .cls-3 {
        fill: #fff;
      }

      .cls-4 {
        fill: #333;
      }

      .cls-5 {
        clip-path: url(#clippath);
      }
    </style>
    <clipPath id="clippath">
      <rect class="cls-1" x="207.52" y="39.93" width="242.02" height="139.98"/>
    </clipPath>
  </defs>
  <g id="Layer_1-2" data-name="Layer_1">
    <g>
      <rect class="cls-4" width="468.13" height="179.91" rx="3.56" ry="3.56"/>
      <path class="cls-3" d="M30.99,80.75h-12.37c-.69,0-1.03-.33-1.03-1V18.75c0-.67.34-1,1.03-1h12.37c.69,0,1.03.33,1.03,1v22.8c0,.67.38,1,1.13,1h17.94c.76,0,1.13-.33,1.13-1v-22.8c0-.67.34-1,1.03-1h12.17c.62,0,.93.33.93,1v61c0,.67-.31,1-.93,1h-12.17c-.69,0-1.03-.33-1.03-1v-23.7c0-.67-.38-1-1.13-1h-17.94c-.76,0-1.13.33-1.13,1v23.7c0,.67-.34,1-1.03,1Z"/>
      <path class="cls-3" d="M85.73,80.75h-12.6c-.73,0-1.1-.27-1.1-.8l.1-.5,19.7-61c.2-.47.53-.7,1-.7h8.9c.47,0,.8.23,1,.7l19.7,61,.1.5c0,.53-.37.8-1.1.8h-12.7c-.47,0-.8-.23-1-.7l-2.8-9.1c-.13-.4-.5-.6-1.1-.6h-13.2c-.6,0-.97.2-1.1.6l-2.9,9.1c-.2.47-.5.7-.9.7ZM94.23,59.25h6.1c.73,0,1.1-.4,1.1-1.2l-2.1-8.1c-.93-3.4-1.53-6.97-1.8-10.7h-.4c-.33,3.13-1,6.7-2,10.7l-2.1,8.1-.1.3c0,.27.12.48.35.65.23.17.55.25.95.25Z"/>
      <path class="cls-3" d="M141.83,80.75h-12c-.67,0-1-.33-1-1V18.75c0-.67.33-1,1-1h25c6.07,0,10.92,1.72,14.55,5.15,3.63,3.43,5.45,8.08,5.45,13.95v1c0,2.67-.75,5.27-2.25,7.8-1.5,2.53-3.32,4.5-5.45,5.9-.4.27-.6.6-.6,1l.1.5,9.6,26.4.1.6c0,.47-.3.7-.9.7h-12.9c-.13,0-.3-.08-.5-.25-.2-.17-.33-.32-.4-.45l-8.9-24.4c-.2-.4-.5-.6-.9-.6h-7.9c-.73,0-1.1.33-1.1,1v23.7c0,.67-.33,1-1,1ZM143.93,43.05h10.9c1.73,0,3.2-.55,4.4-1.65,1.2-1.1,1.8-2.45,1.8-4.05v-1.4c0-1.6-.6-2.97-1.8-4.1-1.2-1.13-2.67-1.7-4.4-1.7h-10.9c-.73,0-1.1.37-1.1,1.1v10.7c0,.73.37,1.1,1.1,1.1Z"/>
      <path class="cls-3" d="M209.63,80.75h-25c-.67,0-1-.33-1-1V18.75c0-.67.33-1,1-1h25c6.07,0,10.92,1.72,14.55,5.15,3.63,3.43,5.45,8.08,5.45,13.95v24.8c0,5.8-1.82,10.43-5.45,13.9-3.63,3.47-8.48,5.2-14.55,5.2ZM198.73,68.25h10.9c1.67,0,3.12-.55,4.35-1.65,1.23-1.1,1.85-2.45,1.85-4.05v-26.6c0-1.47-.62-2.8-1.85-4-1.23-1.2-2.68-1.8-4.35-1.8h-10.9c-.73,0-1.1.37-1.1,1.1v36c0,.67.37,1,1.1,1Z"/>
      <path class="cls-3" d="M257.43,80.75h-9.2c-.53,0-.87-.27-1-.8l-13.9-61.2-.1-.3c0-.47.37-.7,1.1-.7h12.8c.53,0,.87.27,1,.8l5.5,29.8,1,6.8h.4l1-6.8,7.3-29.8c.13-.53.4-.8.8-.8h7.5c.4,0,.67.27.8.8l7.1,29.7,1,6.4h.4l.9-6.5,5.6-29.6c.13-.53.43-.8.9-.8h12.9c.67,0,1,.33,1,1l-13.9,61.2c-.13.53-.47.8-1,.8h-9.2c-.53,0-.83-.23-.9-.7l-8.1-29.9-1.2-5.7h-.4l-1.1,5.7-8,29.9c-.07.47-.4.7-1,.7Z"/>
      <path class="cls-3" d="M315.79,72l-2.56,8.04c-.2.47-.5.7-.9.7h-12.6c-.73,0-1.1-.27-1.1-.8l.1-.5,19.7-61c.2-.47.53-.7,1-.7h8.9c.47,0,.8.23,1,.7l19.7,61,.1.5c0,.53-.37.8-1.1.8h-12.7c-.47,0-.8-.23-1-.7l-8.4-30.1c-.93-3.4-1.53-6.97-1.8-10.7h-.4c-.33,3.13-1,6.7-2,10.7l-1.64,6.32-4.3,15.73Z"/>
      <path class="cls-3" d="M368.16,80.75h-12c-.67,0-1-.33-1-1V18.75c0-.67.33-1,1-1h25c6.07,0,10.92,1.72,14.55,5.15,3.63,3.43,5.45,8.08,5.45,13.95v1c0,2.67-.75,5.27-2.25,7.8-1.5,2.53-3.32,4.5-5.45,5.9-.4.27-.6.6-.6,1l.1.5,9.6,26.4.1.6c0,.47-.3.7-.9.7h-12.9c-.13,0-.3-.08-.5-.25-.2-.17-.33-.32-.4-.45l-8.9-24.4c-.2-.4-.5-.6-.9-.6h-7.9c-.73,0-1.1.33-1.1,1v23.7c0,.67-.33,1-1,1ZM370.26,43.05h10.9c1.73,0,3.2-.55,4.4-1.65,1.2-1.1,1.8-2.45,1.8-4.05v-1.4c0-1.6-.6-2.97-1.8-4.1-1.2-1.13-2.67-1.7-4.4-1.7h-10.9c-.73,0-1.1.37-1.1,1.1v10.7c0,.73.37,1.1,1.1,1.1Z"/>
      <path class="cls-3" d="M448.83,80.75h-38.2c-.67,0-1-.33-1-1V18.75c0-.67.33-1,1-1h38.2c.67,0,1,.33,1,1v10.5c0,.6-.33.9-1,.9h-24.1c-.73,0-1.1.37-1.1,1.1v10.3c0,.67.37,1,1.1,1h19.8c.67,0,1,.33,1,1v10.5c0,.67-.33,1-1,1h-19.8c-.73,0-1.1.33-1.1,1v11.2c0,.67.37,1,1.1,1h24.1c.67,0,1,.33,1,1v10.5c0,.67-.33,1-1,1Z"/>
      <path class="cls-3" d="M30.58,162.01h-11.8c-.67,0-1-.33-1-1v-61c0-.67.33-1,1-1h10.4c.53,0,.9.2,1.1.6l16.4,30.7c1.07,2.07,1.77,3.7,2.1,4.9l.4-.1c-.33-6.67-.5-13.63-.5-20.9v-14.2c0-.67.3-1,.9-1h11.6c.67,0,1,.33,1,1v61c0,.67-.33,1-1,1h-10.2c-.13,0-.33-.08-.6-.25-.27-.17-.43-.32-.5-.45l-16.4-30.2c-.8-1.53-1.5-3.17-2.1-4.9l-.4.1c.4,4.8.6,11.7.6,20.7v14c0,.67-.33,1-1,1Z"/>
      <path class="cls-3" d="M97.88,163.18h-5.9c-6.07,0-10.92-1.68-14.55-5.05-3.63-3.37-5.45-7.75-5.45-13.15v-28.9c0-5.4,1.83-9.78,5.5-13.15,3.67-3.37,8.5-5.05,14.5-5.05h5.9c6,0,10.83,1.68,14.5,5.05,3.67,3.37,5.5,7.75,5.5,13.15v28.9c0,5.4-1.85,9.78-5.55,13.15-3.7,3.37-8.52,5.05-14.45,5.05ZM91.98,150.78h5.9c1.73,0,3.18-.57,4.35-1.7,1.17-1.13,1.75-2.5,1.75-4.1v-28.9c0-1.6-.58-2.97-1.75-4.1-1.17-1.13-2.62-1.7-4.35-1.7h-5.9c-1.67,0-3.13.58-4.4,1.75-1.27,1.17-1.9,2.52-1.9,4.05v28.9c0,1.53.62,2.88,1.85,4.05,1.23,1.17,2.72,1.75,4.45,1.75Z"/>
      <path class="cls-3" d="M148.47,162.03h-9.2c-.53,0-.87-.27-1-.8l-13.9-61.2-.1-.3c0-.47.37-.7,1.1-.7h12.8c.53,0,.87.27,1,.8l5.5,29.8,1,6.8h.4l1-6.8,7.3-29.8c.13-.53.4-.8.8-.8h7.5c.4,0,.67.27.8.8l7.1,29.7,1,6.4h.4l.9-6.5,5.6-29.6c.13-.53.43-.8.9-.8h12.9c.67,0,1,.33,1,1l-13.9,61.2c-.13.53-.47.8-1,.8h-9.2c-.53,0-.83-.23-.9-.7l-8.1-29.9-1.2-5.7h-.4l-1.1,5.7-8,29.9c-.07.47-.4.7-1,.7Z"/>
      <g class="cls-5">
        <path class="cls-2" d="M469.89,226.1c-.3-1.59-.73-3.43-9.04-8.82-8.77-5.69-29.66-26-36-31.45-6.34-5.45-26.86-22.22-34.41-28.7s-29.07-21.13-30.94-22.21c-1.49-.86-2.37.03-2.67.42l-44.74-33.3s.83-1.08-.29-2.05-3.86-4.89-3.86-4.89c-1.62-2.66-6.83-13.24-6.83-13.24,0,0-.91-1.59,1.88-3.85,14.64-11.86,38.76-12.21,40.16-12.41,1.4-.2,5.56-1.17,4.02-2.84s-25.71-4.07-45.27-.24c-19.56,3.83-30.23,18.28-34.53,23.65-1.41,1.76-2.61,3.6-2.7,5.21-.1,1.77.28,3.55-.27,5.51-2.04,7.36-7.3,11.68-9.08,12.49-2.01.92-3.28,1.09-4.75,2.81s-6.88,8.01-6.88,8.01c-1.22,1.42-1.06,3.55.36,4.77l13.22,11.36c1.42,1.22,3.55,1.06,4.77-.36,0,0,5.4-6.29,6.88-8.01s1.52-2.98,2.06-5.12c1.61-6.42,4.04-8.63,7.16-11.67,6.31-6.12,15.37-3.96,17.72-2,0,0,3.77,2.72,4.9,3.69s2.07-.02,2.07-.02l42.69,35.69c-.34.34-1.1,1.35-.02,2.7,1.35,1.68,19.07,20.76,26.62,27.24,7.55,6.48,27.01,20.06,33.35,25.51s29.76,27.23,36.71,35.04c6.58,7.4,8.46,7.55,10.08,7.61,2.55.09,5.18-1.14,11.23-8.19,6.05-7.04,6.88-9.83,6.4-12.34Z"/>
        <path class="cls-2" d="M247.71,201.1l-1.55-13.31v-30.83c0-1.79-3.99-3.31-3.99-3.31v-.59c0-.12.1-.22.22-.22h10.66c.12,0,.22.1.22.22v.59s-3.99,1.52-3.99,3.31v30.83l-1.55,13.31"/>
      </g>
    </g>
  </g>
</svg>